# xmcd
#
# Track frame offsets:
#	180
#	9290
#	20956
#	33568
#	47468
#	59038
#	71058
#	85326
#	96531
#	103559
#	116133
#	128198
#	138876
#	150606
#	156167
#	166614
#	182443
#	194500
#	205301
#	218103
#	241399
#	246159
#	259679
#	270392
#	284382
#
# Disc length: 3948 seconds
# Revision: 6
# Processed by: cddbd v1.5.2PL0 Copyright (c) Steve Scherf et al.
# Submitted via: dBpowerAMP V12.0
#
DISCID=6a0f6a19
DTITLE=Various Artist - Classic Bluegrass from Smithsonian Folkways
DYEAR=2002
DGENRE=Bluegrass
TTITLE0=Earl Taylor and the Stoney Mountain Boys - White House Blues
TTITLE1=The Johnson Mountain Boys - Our Last Goodbye
TTITLE2=Bill Monroe and his Blue Grass Boys - When He Reached Down His Hand For Me
TTITLE3=Hazel Dickens and Alice Gerrard - Tiny Broken Heart
TTITLE4=Red Allen, Frank Wakefield and the Kentuckians - New Camptown Races
TTITLE5=Harley Allen - Mike Lilly Band - Suzanne
TTITLE6=Nashville Grass - I Heard My Mother Call My Name In Prayer
TTITLE7=Friendly City Playboys - Teardrops In My Eyes
TTITLE8=Snuffy Jenkins - Cumberland Gap
TTITLE9=Red Allen and The Kentuckians - Live And Let Live
TTITLE10=Roger Sprung and Doc Watson - The World Is Waiting For The Sunrise
TTITLE11=Hugh Moore - Hello City Limits
TTITLE12=The Country Gentlemen - (Legend Of The) Brown Mountain Light
TTITLE13=Roni Stoneman - Lonesome Road Blues
TTITLE14=Doc Watson - The Train That Carried My Girl From Town
TTITLE15=The New Lost City Ramblers - The Little Girl And The Dreadful Snake
TTITLE16=The Stanley Brothers - Little Birdie
TTITLE17=The Stanley Brothers - Rabbit In A Log
TTITLE18=David and Billy Ray Johnson - Grey Eagle
TTITLE19=Cullen Gaylean and the Virginia Mountain Boys - Wayfaring Stranger
TTITLE20=Lonesome Strangers - Billy In The Lowground
TTITLE21=Hazel Dickens - The Rebel Girl
TTITLE22=Smiley Hobbs - Train 45
TTITLE23=The Lilly Brothers and Don Stover - 'Neath That Cold Grey Tomb of Stone
TTITLE24=Bill Monroe and his Blue Grass Boys - Get Up John
EXTD=
EXTT0=
EXTT1=
EXTT2=
EXTT3=
EXTT4=
EXTT5=
EXTT6=
EXTT7=
EXTT8=
EXTT9=
EXTT10=
EXTT11=
EXTT12=
EXTT13=
EXTT14=
EXTT15=
EXTT16=
EXTT17=
EXTT18=
EXTT19=
EXTT20=
EXTT21=
EXTT22=
EXTT23=
EXTT24=
PLAYORDER=
